ISO-10303-21;
HEADER;
/* Generated by software containing ST-Developer
 * from STEP Tools, Inc. (www.steptools.com) 
 */

FILE_DESCRIPTION(
/* description */ (''),
/* implementation_level */ '2;1');

FILE_NAME(
/* name */ 'bracket v1.step',
/* time_stamp */ '2024-08-24T22:13:02+05:30',
/* author */ (''),
/* organization */ (''),
/* preprocessor_version */ 'ST-DEVELOPER v20',
/* originating_system */ 'Autodesk Translation Framework v13.14.0.145',

/* authorisation */ '');

FILE_SCHEMA (('AUTOMOTIVE_DESIGN { 1 0 10303 214 3 1 1 }'));
ENDSEC;

DATA;
#10=MECHANICAL_DESIGN_GEOMETRIC_PRESENTATION_REPRESENTATION('',(#13),#742);
#11=SHAPE_REPRESENTATION_RELATIONSHIP('SRR','None',#749,#12);
#12=ADVANCED_BREP_SHAPE_REPRESENTATION('',(#14),#741);
#13=STYLED_ITEM('',(#758),#14);
#14=MANIFOLD_SOLID_BREP('Body1',#438);
#15=CYLINDRICAL_SURFACE('',#459,10.);
#16=CYLINDRICAL_SURFACE('',#461,1.25);
#17=CYLINDRICAL_SURFACE('',#463,1.25);
#18=CYLINDRICAL_SURFACE('',#465,1.25);
#19=CYLINDRICAL_SURFACE('',#467,3.325000000003);
#20=CYLINDRICAL_SURFACE('',#469,1.25);
#21=CYLINDRICAL_SURFACE('',#483,1.25);
#22=CYLINDRICAL_SURFACE('',#485,1.6);
#23=CYLINDRICAL_SURFACE('',#487,1.25);
#24=CYLINDRICAL_SURFACE('',#489,1.25);
#25=CYLINDRICAL_SURFACE('',#491,1.25);
#26=CYLINDRICAL_SURFACE('',#493,10.);
#27=FACE_BOUND('',#69,.T.);
#28=FACE_BOUND('',#70,.T.);
#29=FACE_BOUND('',#71,.T.);
#30=FACE_BOUND('',#72,.T.);
#31=FACE_BOUND('',#73,.T.);
#32=FACE_BOUND('',#81,.T.);
#33=FACE_BOUND('',#82,.T.);
#34=FACE_BOUND('',#83,.T.);
#35=FACE_BOUND('',#84,.T.);
#36=FACE_BOUND('',#85,.T.);
#37=FACE_BOUND('',#91,.T.);
#38=FACE_BOUND('',#92,.T.);
#39=FACE_BOUND('',#93,.T.);
#40=FACE_BOUND('',#94,.T.);
#41=FACE_BOUND('',#95,.T.);
#42=FACE_BOUND('',#104,.T.);
#43=FACE_BOUND('',#105,.T.);
#44=FACE_BOUND('',#106,.T.);
#45=FACE_BOUND('',#107,.T.);
#46=FACE_BOUND('',#108,.T.);
#47=FACE_OUTER_BOUND('',#68,.T.);
#48=FACE_OUTER_BOUND('',#74,.T.);
#49=FACE_OUTER_BOUND('',#75,.T.);
#50=FACE_OUTER_BOUND('',#76,.T.);
#51=FACE_OUTER_BOUND('',#77,.T.);
#52=FACE_OUTER_BOUND('',#78,.T.);
#53=FACE_OUTER_BOUND('',#79,.T.);
#54=FACE_OUTER_BOUND('',#80,.T.);
#55=FACE_OUTER_BOUND('',#86,.T.);
#56=FACE_OUTER_BOUND('',#87,.T.);
#57=FACE_OUTER_BOUND('',#88,.T.);
#58=FACE_OUTER_BOUND('',#89,.T.);
#59=FACE_OUTER_BOUND('',#90,.T.);
#60=FACE_OUTER_BOUND('',#96,.T.);
#61=FACE_OUTER_BOUND('',#97,.T.);
#62=FACE_OUTER_BOUND('',#98,.T.);
#63=FACE_OUTER_BOUND('',#99,.T.);
#64=FACE_OUTER_BOUND('',#100,.T.);
#65=FACE_OUTER_BOUND('',#101,.T.);
#66=FACE_OUTER_BOUND('',#102,.T.);
#67=FACE_OUTER_BOUND('',#103,.T.);
#68=EDGE_LOOP('',(#294,#295,#296,#297));
#69=EDGE_LOOP('',(#298));
#70=EDGE_LOOP('',(#299));
#71=EDGE_LOOP('',(#300));
#72=EDGE_LOOP('',(#301));
#73=EDGE_LOOP('',(#302));
#74=EDGE_LOOP('',(#303,#304,#305,#306));
#75=EDGE_LOOP('',(#307,#308,#309,#310));
#76=EDGE_LOOP('',(#311,#312,#313,#314));
#77=EDGE_LOOP('',(#315,#316,#317,#318));
#78=EDGE_LOOP('',(#319,#320,#321,#322));
#79=EDGE_LOOP('',(#323,#324,#325,#326));
#80=EDGE_LOOP('',(#327,#328,#329,#330));
#81=EDGE_LOOP('',(#331));
#82=EDGE_LOOP('',(#332));
#83=EDGE_LOOP('',(#333));
#84=EDGE_LOOP('',(#334));
#85=EDGE_LOOP('',(#335));
#86=EDGE_LOOP('',(#336,#337,#338,#339,#340,#341,#342));
#87=EDGE_LOOP('',(#343,#344,#345,#346));
#88=EDGE_LOOP('',(#347,#348,#349,#350));
#89=EDGE_LOOP('',(#351,#352,#353,#354,#355,#356,#357,#358,#359));
#90=EDGE_LOOP('',(#360,#361,#362,#363));
#91=EDGE_LOOP('',(#364));
#92=EDGE_LOOP('',(#365));
#93=EDGE_LOOP('',(#366));
#94=EDGE_LOOP('',(#367));
#95=EDGE_LOOP('',(#368));
#96=EDGE_LOOP('',(#369,#370,#371,#372));
#97=EDGE_LOOP('',(#373,#374,#375,#376));
#98=EDGE_LOOP('',(#377,#378,#379,#380));
#99=EDGE_LOOP('',(#381,#382,#383,#384));
#100=EDGE_LOOP('',(#385,#386,#387,#388));
#101=EDGE_LOOP('',(#389,#390,#391,#392));
#102=EDGE_LOOP('',(#393,#394,#395,#396));
#103=EDGE_LOOP('',(#397,#398,#399,#400,#401,#402));
#104=EDGE_LOOP('',(#403));
#105=EDGE_LOOP('',(#404));
#106=EDGE_LOOP('',(#405));
#107=EDGE_LOOP('',(#406));
#108=EDGE_LOOP('',(#407));
#109=CIRCLE('',#453,10.);
#110=CIRCLE('',#454,1.25);
#111=CIRCLE('',#455,1.25);
#112=CIRCLE('',#456,1.25);
#113=CIRCLE('',#457,3.325000000003);
#114=CIRCLE('',#458,1.25);
#115=CIRCLE('',#460,10.);
#116=CIRCLE('',#462,1.25);
#117=CIRCLE('',#464,1.25);
#118=CIRCLE('',#466,1.25);
#119=CIRCLE('',#468,3.325000000003);
#120=CIRCLE('',#470,1.25);
#121=CIRCLE('',#477,10.);
#122=CIRCLE('',#478,1.25);
#123=CIRCLE('',#479,1.6);
#124=CIRCLE('',#480,1.25);
#125=CIRCLE('',#481,1.25);
#126=CIRCLE('',#482,1.25);
#127=CIRCLE('',#484,1.25);
#128=CIRCLE('',#486,1.6);
#129=CIRCLE('',#488,1.25);
#130=CIRCLE('',#490,1.25);
#131=CIRCLE('',#492,1.25);
#132=CIRCLE('',#494,10.);
#133=LINE('',#626,#166);
#134=LINE('',#628,#167);
#135=LINE('',#631,#168);
#136=LINE('',#644,#169);
#137=LINE('',#647,#170);
#138=LINE('',#651,#171);
#139=LINE('',#655,#172);
#140=LINE('',#659,#173);
#141=LINE('',#663,#174);
#142=LINE('',#667,#175);
#143=LINE('',#670,#176);
#144=LINE('',#672,#177);
#145=LINE('',#673,#178);
#146=LINE('',#676,#179);
#147=LINE('',#678,#180);
#148=LINE('',#680,#181);
#149=LINE('',#681,#182);
#150=LINE('',#684,#183);
#151=LINE('',#685,#184);
#152=LINE('',#688,#185);
#153=LINE('',#689,#186);
#154=LINE('',#692,#187);
#155=LINE('',#694,#188);
#156=LINE('',#696,#189);
#157=LINE('',#697,#190);
#158=LINE('',#700,#191);
#159=LINE('',#715,#192);
#160=LINE('',#719,#193);
#161=LINE('',#723,#194);
#162=LINE('',#727,#195);
#163=LINE('',#731,#196);
#164=LINE('',#734,#197);
#165=LINE('',#737,#198);
#166=VECTOR('',#501,10.);
#167=VECTOR('',#502,10.);
#168=VECTOR('',#505,10.);
#169=VECTOR('',#518,10.);
#170=VECTOR('',#521,10.);
#171=VECTOR('',#526,1.25);
#172=VECTOR('',#531,1.25);
#173=VECTOR('',#536,1.25);
#174=VECTOR('',#541,3.325000000003);
#175=VECTOR('',#546,1.25);
#176=VECTOR('',#549,10.);
#177=VECTOR('',#550,10.);
#178=VECTOR('',#551,10.);
#179=VECTOR('',#554,10.);
#180=VECTOR('',#555,10.);
#181=VECTOR('',#556,10.);
#182=VECTOR('',#557,10.);
#183=VECTOR('',#560,10.);
#184=VECTOR('',#561,10.);
#185=VECTOR('',#564,10.);
#186=VECTOR('',#565,10.);
#187=VECTOR('',#568,10.);
#188=VECTOR('',#569,10.);
#189=VECTOR('',#570,10.);
#190=VECTOR('',#571,10.);
#191=VECTOR('',#574,10.);
#192=VECTOR('',#591,1.25);
#193=VECTOR('',#596,1.6);
#194=VECTOR('',#601,1.25);
#195=VECTOR('',#606,1.25);
#196=VECTOR('',#611,1.25);
#197=VECTOR('',#614,10.);
#198=VECTOR('',#619,10.);
#199=VERTEX_POINT('',#624);
#200=VERTEX_POINT('',#625);
#201=VERTEX_POINT('',#627);
#202=VERTEX_POINT('',#629);
#203=VERTEX_POINT('',#632);
#204=VERTEX_POINT('',#634);
#205=VERTEX_POINT('',#636);
#206=VERTEX_POINT('',#638);
#207=VERTEX_POINT('',#640);
#208=VERTEX_POINT('',#643);
#209=VERTEX_POINT('',#645);
#210=VERTEX_POINT('',#649);
#211=VERTEX_POINT('',#653);
#212=VERTEX_POINT('',#657);
#213=VERTEX_POINT('',#661);
#214=VERTEX_POINT('',#665);
#215=VERTEX_POINT('',#669);
#216=VERTEX_POINT('',#671);
#217=VERTEX_POINT('',#675);
#218=VERTEX_POINT('',#677);
#219=VERTEX_POINT('',#679);
#220=VERTEX_POINT('',#683);
#221=VERTEX_POINT('',#687);
#222=VERTEX_POINT('',#691);
#223=VERTEX_POINT('',#693);
#224=VERTEX_POINT('',#695);
#225=VERTEX_POINT('',#699);
#226=VERTEX_POINT('',#702);
#227=VERTEX_POINT('',#704);
#228=VERTEX_POINT('',#706);
#229=VERTEX_POINT('',#708);
#230=VERTEX_POINT('',#710);
#231=VERTEX_POINT('',#713);
#232=VERTEX_POINT('',#717);
#233=VERTEX_POINT('',#721);
#234=VERTEX_POINT('',#725);
#235=VERTEX_POINT('',#729);
#236=VERTEX_POINT('',#733);
#237=EDGE_CURVE('',#199,#200,#133,.T.);
#238=EDGE_CURVE('',#201,#199,#134,.T.);
#239=EDGE_CURVE('',#202,#201,#109,.T.);
#240=EDGE_CURVE('',#202,#200,#135,.T.);
#241=EDGE_CURVE('',#203,#203,#110,.T.);
#242=EDGE_CURVE('',#204,#204,#111,.T.);
#243=EDGE_CURVE('',#205,#205,#112,.T.);
#244=EDGE_CURVE('',#206,#206,#113,.T.);
#245=EDGE_CURVE('',#207,#207,#114,.T.);
#246=EDGE_CURVE('',#201,#208,#136,.T.);
#247=EDGE_CURVE('',#209,#208,#115,.T.);
#248=EDGE_CURVE('',#202,#209,#137,.T.);
#249=EDGE_CURVE('',#210,#210,#116,.T.);
#250=EDGE_CURVE('',#210,#203,#138,.T.);
#251=EDGE_CURVE('',#211,#211,#117,.T.);
#252=EDGE_CURVE('',#211,#204,#139,.T.);
#253=EDGE_CURVE('',#212,#212,#118,.T.);
#254=EDGE_CURVE('',#212,#205,#140,.T.);
#255=EDGE_CURVE('',#213,#213,#119,.T.);
#256=EDGE_CURVE('',#213,#206,#141,.T.);
#257=EDGE_CURVE('',#214,#214,#120,.T.);
#258=EDGE_CURVE('',#214,#207,#142,.T.);
#259=EDGE_CURVE('',#208,#215,#143,.T.);
#260=EDGE_CURVE('',#216,#215,#144,.T.);
#261=EDGE_CURVE('',#209,#216,#145,.T.);
#262=EDGE_CURVE('',#217,#216,#146,.T.);
#263=EDGE_CURVE('',#218,#217,#147,.T.);
#264=EDGE_CURVE('',#219,#218,#148,.T.);
#265=EDGE_CURVE('',#200,#219,#149,.T.);
#266=EDGE_CURVE('',#215,#220,#150,.T.);
#267=EDGE_CURVE('',#220,#217,#151,.T.);
#268=EDGE_CURVE('',#221,#219,#152,.T.);
#269=EDGE_CURVE('',#221,#199,#153,.T.);
#270=EDGE_CURVE('',#221,#222,#154,.T.);
#271=EDGE_CURVE('',#222,#223,#155,.T.);
#272=EDGE_CURVE('',#224,#223,#156,.T.);
#273=EDGE_CURVE('',#224,#220,#157,.T.);
#274=EDGE_CURVE('',#225,#219,#158,.T.);
#275=EDGE_CURVE('',#222,#225,#121,.T.);
#276=EDGE_CURVE('',#226,#226,#122,.T.);
#277=EDGE_CURVE('',#227,#227,#123,.T.);
#278=EDGE_CURVE('',#228,#228,#124,.T.);
#279=EDGE_CURVE('',#229,#229,#125,.T.);
#280=EDGE_CURVE('',#230,#230,#126,.T.);
#281=EDGE_CURVE('',#231,#231,#127,.T.);
#282=EDGE_CURVE('',#231,#226,#159,.T.);
#283=EDGE_CURVE('',#232,#232,#128,.T.);
#284=EDGE_CURVE('',#232,#227,#160,.T.);
#285=EDGE_CURVE('',#233,#233,#129,.T.);
#286=EDGE_CURVE('',#233,#228,#161,.T.);
#287=EDGE_CURVE('',#234,#234,#130,.T.);
#288=EDGE_CURVE('',#234,#229,#162,.T.);
#289=EDGE_CURVE('',#235,#235,#131,.T.);
#290=EDGE_CURVE('',#235,#230,#163,.T.);
#291=EDGE_CURVE('',#225,#236,#164,.T.);
#292=EDGE_CURVE('',#223,#236,#132,.T.);
#293=EDGE_CURVE('',#236,#218,#165,.T.);
#294=ORIENTED_EDGE('',*,*,#237,.F.);
#295=ORIENTED_EDGE('',*,*,#238,.F.);
#296=ORIENTED_EDGE('',*,*,#239,.F.);
#297=ORIENTED_EDGE('',*,*,#240,.T.);
#298=ORIENTED_EDGE('',*,*,#241,.F.);
#299=ORIENTED_EDGE('',*,*,#242,.F.);
#300=ORIENTED_EDGE('',*,*,#243,.F.);
#301=ORIENTED_EDGE('',*,*,#244,.F.);
#302=ORIENTED_EDGE('',*,*,#245,.F.);
#303=ORIENTED_EDGE('',*,*,#239,.T.);
#304=ORIENTED_EDGE('',*,*,#246,.T.);
#305=ORIENTED_EDGE('',*,*,#247,.F.);
#306=ORIENTED_EDGE('',*,*,#248,.F.);
#307=ORIENTED_EDGE('',*,*,#249,.F.);
#308=ORIENTED_EDGE('',*,*,#250,.T.);
#309=ORIENTED_EDGE('',*,*,#241,.T.);
#310=ORIENTED_EDGE('',*,*,#250,.F.);
#311=ORIENTED_EDGE('',*,*,#251,.F.);
#312=ORIENTED_EDGE('',*,*,#252,.T.);
#313=ORIENTED_EDGE('',*,*,#242,.T.);
#314=ORIENTED_EDGE('',*,*,#252,.F.);
#315=ORIENTED_EDGE('',*,*,#253,.F.);
#316=ORIENTED_EDGE('',*,*,#254,.T.);
#317=ORIENTED_EDGE('',*,*,#243,.T.);
#318=ORIENTED_EDGE('',*,*,#254,.F.);
#319=ORIENTED_EDGE('',*,*,#255,.F.);
#320=ORIENTED_EDGE('',*,*,#256,.T.);
#321=ORIENTED_EDGE('',*,*,#244,.T.);
#322=ORIENTED_EDGE('',*,*,#256,.F.);
#323=ORIENTED_EDGE('',*,*,#257,.F.);
#324=ORIENTED_EDGE('',*,*,#258,.T.);
#325=ORIENTED_EDGE('',*,*,#245,.T.);
#326=ORIENTED_EDGE('',*,*,#258,.F.);
#327=ORIENTED_EDGE('',*,*,#259,.T.);
#328=ORIENTED_EDGE('',*,*,#260,.F.);
#329=ORIENTED_EDGE('',*,*,#261,.F.);
#330=ORIENTED_EDGE('',*,*,#247,.T.);
#331=ORIENTED_EDGE('',*,*,#249,.T.);
#332=ORIENTED_EDGE('',*,*,#251,.T.);
#333=ORIENTED_EDGE('',*,*,#253,.T.);
#334=ORIENTED_EDGE('',*,*,#255,.T.);
#335=ORIENTED_EDGE('',*,*,#257,.T.);
#336=ORIENTED_EDGE('',*,*,#261,.T.);
#337=ORIENTED_EDGE('',*,*,#262,.F.);
#338=ORIENTED_EDGE('',*,*,#263,.F.);
#339=ORIENTED_EDGE('',*,*,#264,.F.);
#340=ORIENTED_EDGE('',*,*,#265,.F.);
#341=ORIENTED_EDGE('',*,*,#240,.F.);
#342=ORIENTED_EDGE('',*,*,#248,.T.);
#343=ORIENTED_EDGE('',*,*,#266,.T.);
#344=ORIENTED_EDGE('',*,*,#267,.T.);
#345=ORIENTED_EDGE('',*,*,#262,.T.);
#346=ORIENTED_EDGE('',*,*,#260,.T.);
#347=ORIENTED_EDGE('',*,*,#268,.F.);
#348=ORIENTED_EDGE('',*,*,#269,.T.);
#349=ORIENTED_EDGE('',*,*,#237,.T.);
#350=ORIENTED_EDGE('',*,*,#265,.T.);
#351=ORIENTED_EDGE('',*,*,#270,.T.);
#352=ORIENTED_EDGE('',*,*,#271,.T.);
#353=ORIENTED_EDGE('',*,*,#272,.F.);
#354=ORIENTED_EDGE('',*,*,#273,.T.);
#355=ORIENTED_EDGE('',*,*,#266,.F.);
#356=ORIENTED_EDGE('',*,*,#259,.F.);
#357=ORIENTED_EDGE('',*,*,#246,.F.);
#358=ORIENTED_EDGE('',*,*,#238,.T.);
#359=ORIENTED_EDGE('',*,*,#269,.F.);
#360=ORIENTED_EDGE('',*,*,#268,.T.);
#361=ORIENTED_EDGE('',*,*,#274,.F.);
#362=ORIENTED_EDGE('',*,*,#275,.F.);
#363=ORIENTED_EDGE('',*,*,#270,.F.);
#364=ORIENTED_EDGE('',*,*,#276,.F.);
#365=ORIENTED_EDGE('',*,*,#277,.F.);
#366=ORIENTED_EDGE('',*,*,#278,.F.);
#367=ORIENTED_EDGE('',*,*,#279,.F.);
#368=ORIENTED_EDGE('',*,*,#280,.F.);
#369=ORIENTED_EDGE('',*,*,#281,.F.);
#370=ORIENTED_EDGE('',*,*,#282,.T.);
#371=ORIENTED_EDGE('',*,*,#276,.T.);
#372=ORIENTED_EDGE('',*,*,#282,.F.);
#373=ORIENTED_EDGE('',*,*,#283,.F.);
#374=ORIENTED_EDGE('',*,*,#284,.T.);
#375=ORIENTED_EDGE('',*,*,#277,.T.);
#376=ORIENTED_EDGE('',*,*,#284,.F.);
#377=ORIENTED_EDGE('',*,*,#285,.F.);
#378=ORIENTED_EDGE('',*,*,#286,.T.);
#379=ORIENTED_EDGE('',*,*,#278,.T.);
#380=ORIENTED_EDGE('',*,*,#286,.F.);
#381=ORIENTED_EDGE('',*,*,#287,.F.);
#382=ORIENTED_EDGE('',*,*,#288,.T.);
#383=ORIENTED_EDGE('',*,*,#279,.T.);
#384=ORIENTED_EDGE('',*,*,#288,.F.);
#385=ORIENTED_EDGE('',*,*,#289,.F.);
#386=ORIENTED_EDGE('',*,*,#290,.T.);
#387=ORIENTED_EDGE('',*,*,#280,.T.);
#388=ORIENTED_EDGE('',*,*,#290,.F.);
#389=ORIENTED_EDGE('',*,*,#275,.T.);
#390=ORIENTED_EDGE('',*,*,#291,.T.);
#391=ORIENTED_EDGE('',*,*,#292,.F.);
#392=ORIENTED_EDGE('',*,*,#271,.F.);
#393=ORIENTED_EDGE('',*,*,#264,.T.);
#394=ORIENTED_EDGE('',*,*,#293,.F.);
#395=ORIENTED_EDGE('',*,*,#291,.F.);
#396=ORIENTED_EDGE('',*,*,#274,.T.);
#397=ORIENTED_EDGE('',*,*,#272,.T.);
#398=ORIENTED_EDGE('',*,*,#292,.T.);
#399=ORIENTED_EDGE('',*,*,#293,.T.);
#400=ORIENTED_EDGE('',*,*,#263,.T.);
#401=ORIENTED_EDGE('',*,*,#267,.F.);
#402=ORIENTED_EDGE('',*,*,#273,.F.);
#403=ORIENTED_EDGE('',*,*,#281,.T.);
#404=ORIENTED_EDGE('',*,*,#283,.T.);
#405=ORIENTED_EDGE('',*,*,#285,.T.);
#406=ORIENTED_EDGE('',*,*,#287,.T.);
#407=ORIENTED_EDGE('',*,*,#289,.T.);
#408=PLANE('',#452);
#409=PLANE('',#471);
#410=PLANE('',#472);
#411=PLANE('',#473);
#412=PLANE('',#474);
#413=PLANE('',#475);
#414=PLANE('',#476);
#415=PLANE('',#495);
#416=PLANE('',#496);
#417=ADVANCED_FACE('',(#47,#27,#28,#29,#30,#31),#408,.F.);
#418=ADVANCED_FACE('',(#48),#15,.T.);
#419=ADVANCED_FACE('',(#49),#16,.F.);
#420=ADVANCED_FACE('',(#50),#17,.F.);
#421=ADVANCED_FACE('',(#51),#18,.F.);
#422=ADVANCED_FACE('',(#52),#19,.F.);
#423=ADVANCED_FACE('',(#53),#20,.F.);
#424=ADVANCED_FACE('',(#54,#32,#33,#34,#35,#36),#409,.T.);
#425=ADVANCED_FACE('',(#55),#410,.T.);
#426=ADVANCED_FACE('',(#56),#411,.T.);
#427=ADVANCED_FACE('',(#57),#412,.F.);
#428=ADVANCED_FACE('',(#58),#413,.T.);
#429=ADVANCED_FACE('',(#59,#37,#38,#39,#40,#41),#414,.F.);
#430=ADVANCED_FACE('',(#60),#21,.F.);
#431=ADVANCED_FACE('',(#61),#22,.F.);
#432=ADVANCED_FACE('',(#62),#23,.F.);
#433=ADVANCED_FACE('',(#63),#24,.F.);
#434=ADVANCED_FACE('',(#64),#25,.F.);
#435=ADVANCED_FACE('',(#65),#26,.T.);
#436=ADVANCED_FACE('',(#66),#415,.T.);
#437=ADVANCED_FACE('',(#67,#42,#43,#44,#45,#46),#416,.T.);
#438=CLOSED_SHELL('',(#417,#418,#419,#420,#421,#422,#423,#424,#425,#426,
#427,#428,#429,#430,#431,#432,#433,#434,#435,#436,#437));
#439=DERIVED_UNIT_ELEMENT(#441,1.);
#440=DERIVED_UNIT_ELEMENT(#744,-3.);
#441=(
MASS_UNIT()
NAMED_UNIT(*)
SI_UNIT(.KILO.,.GRAM.)
);
#442=DERIVED_UNIT((#439,#440));
#443=MEASURE_REPRESENTATION_ITEM('density measure',
POSITIVE_RATIO_MEASURE(7850.),#442);
#444=PROPERTY_DEFINITION_REPRESENTATION(#449,#446);
#445=PROPERTY_DEFINITION_REPRESENTATION(#450,#447);
#446=REPRESENTATION('material name',(#448),#741);
#447=REPRESENTATION('density',(#443),#741);
#448=DESCRIPTIVE_REPRESENTATION_ITEM('Steel','Steel');
#449=PROPERTY_DEFINITION('material property','material name',#751);
#450=PROPERTY_DEFINITION('material property','density of part',#751);
#451=AXIS2_PLACEMENT_3D('',#622,#497,#498);
#452=AXIS2_PLACEMENT_3D('',#623,#499,#500);
#453=AXIS2_PLACEMENT_3D('',#630,#503,#504);
#454=AXIS2_PLACEMENT_3D('',#633,#506,#507);
#455=AXIS2_PLACEMENT_3D('',#635,#508,#509);
#456=AXIS2_PLACEMENT_3D('',#637,#510,#511);
#457=AXIS2_PLACEMENT_3D('',#639,#512,#513);
#458=AXIS2_PLACEMENT_3D('',#641,#514,#515);
#459=AXIS2_PLACEMENT_3D('',#642,#516,#517);
#460=AXIS2_PLACEMENT_3D('',#646,#519,#520);
#461=AXIS2_PLACEMENT_3D('',#648,#522,#523);
#462=AXIS2_PLACEMENT_3D('',#650,#524,#525);
#463=AXIS2_PLACEMENT_3D('',#652,#527,#528);
#464=AXIS2_PLACEMENT_3D('',#654,#529,#530);
#465=AXIS2_PLACEMENT_3D('',#656,#532,#533);
#466=AXIS2_PLACEMENT_3D('',#658,#534,#535);
#467=AXIS2_PLACEMENT_3D('',#660,#537,#538);
#468=AXIS2_PLACEMENT_3D('',#662,#539,#540);
#469=AXIS2_PLACEMENT_3D('',#664,#542,#543);
#470=AXIS2_PLACEMENT_3D('',#666,#544,#545);
#471=AXIS2_PLACEMENT_3D('',#668,#547,#548);
#472=AXIS2_PLACEMENT_3D('',#674,#552,#553);
#473=AXIS2_PLACEMENT_3D('',#682,#558,#559);
#474=AXIS2_PLACEMENT_3D('',#686,#562,#563);
#475=AXIS2_PLACEMENT_3D('',#690,#566,#567);
#476=AXIS2_PLACEMENT_3D('',#698,#572,#573);
#477=AXIS2_PLACEMENT_3D('',#701,#575,#576);
#478=AXIS2_PLACEMENT_3D('',#703,#577,#578);
#479=AXIS2_PLACEMENT_3D('',#705,#579,#580);
#480=AXIS2_PLACEMENT_3D('',#707,#581,#582);
#481=AXIS2_PLACEMENT_3D('',#709,#583,#584);
#482=AXIS2_PLACEMENT_3D('',#711,#585,#586);
#483=AXIS2_PLACEMENT_3D('',#712,#587,#588);
#484=AXIS2_PLACEMENT_3D('',#714,#589,#590);
#485=AXIS2_PLACEMENT_3D('',#716,#592,#593);
#486=AXIS2_PLACEMENT_3D('',#718,#594,#595);
#487=AXIS2_PLACEMENT_3D('',#720,#597,#598);
#488=AXIS2_PLACEMENT_3D('',#722,#599,#600);
#489=AXIS2_PLACEMENT_3D('',#724,#602,#603);
#490=AXIS2_PLACEMENT_3D('',#726,#604,#605);
#491=AXIS2_PLACEMENT_3D('',#728,#607,#608);
#492=AXIS2_PLACEMENT_3D('',#730,#609,#610);
#493=AXIS2_PLACEMENT_3D('',#732,#612,#613);
#494=AXIS2_PLACEMENT_3D('',#735,#615,#616);
#495=AXIS2_PLACEMENT_3D('',#736,#617,#618);
#496=AXIS2_PLACEMENT_3D('',#738,#620,#621);
#497=DIRECTION('axis',(0.,0.,1.));
#498=DIRECTION('refdir',(1.,0.,0.));
#499=DIRECTION('center_axis',(7.14706072102444E-15,-1.,-8.752624653391E-31));
#500=DIRECTION('ref_axis',(1.,7.14706072102444E-15,5.343781785202E-24));
#501=DIRECTION('',(0.,8.752624653391E-31,-1.));
#502=DIRECTION('',(-1.,-7.14706072102444E-15,-5.343781785202E-24));
#503=DIRECTION('center_axis',(7.14706072102444E-15,-1.,-8.752624653391E-31));
#504=DIRECTION('ref_axis',(1.,7.14706072102444E-15,5.343781785202E-24));
#505=DIRECTION('',(-1.,-7.14706072102444E-15,-5.343781785202E-24));
#506=DIRECTION('center_axis',(-7.14706072102444E-15,1.,8.7526242896101E-31));
#507=DIRECTION('ref_axis',(-1.,-7.14706072102444E-15,-5.343781785202E-24));
#508=DIRECTION('center_axis',(-7.14706072102444E-15,1.,8.7526242896101E-31));
#509=DIRECTION('ref_axis',(-1.,-7.14706072102444E-15,-5.343781785202E-24));
#510=DIRECTION('center_axis',(-7.14706072102444E-15,1.,8.7526242896101E-31));
#511=DIRECTION('ref_axis',(-1.,-7.14706072102444E-15,-5.343781785202E-24));
#512=DIRECTION('center_axis',(-7.14706072102444E-15,1.,8.7526242896101E-31));
#513=DIRECTION('ref_axis',(-1.,-7.14706072102444E-15,-5.34378178520201E-24));
#514=DIRECTION('center_axis',(-7.14706072102444E-15,1.,8.7526242896101E-31));
#515=DIRECTION('ref_axis',(-1.,-7.14706072102444E-15,-5.343781785202E-24));
#516=DIRECTION('center_axis',(6.66133814775093E-15,-1.,0.));
#517=DIRECTION('ref_axis',(1.,6.66133814775093E-15,5.343781785202E-24));
#518=DIRECTION('',(6.66133814775093E-15,-1.,0.));
#519=DIRECTION('center_axis',(7.14706072102444E-15,-1.,-8.752624653391E-31));
#520=DIRECTION('ref_axis',(1.,7.14706072102444E-15,5.343781785202E-24));
#521=DIRECTION('',(6.66133814775093E-15,-1.,0.));
#522=DIRECTION('center_axis',(6.66133814775093E-15,-1.,0.));
#523=DIRECTION('ref_axis',(-1.,-6.66133814775093E-15,-5.343781785202E-24));
#524=DIRECTION('center_axis',(-7.14706072102444E-15,1.,8.7526242896101E-31));
#525=DIRECTION('ref_axis',(-1.,-7.14706072102444E-15,-5.343781785202E-24));
#526=DIRECTION('',(-6.66133814775093E-15,1.,0.));
#527=DIRECTION('center_axis',(6.66133814775093E-15,-1.,0.));
#528=DIRECTION('ref_axis',(-1.,-6.66133814775093E-15,-5.343781785202E-24));
#529=DIRECTION('center_axis',(-7.14706072102444E-15,1.,8.7526242896101E-31));
#530=DIRECTION('ref_axis',(-1.,-7.14706072102444E-15,-5.343781785202E-24));
#531=DIRECTION('',(-6.66133814775093E-15,1.,0.));
#532=DIRECTION('center_axis',(6.66133814775093E-15,-1.,0.));
#533=DIRECTION('ref_axis',(-1.,-6.66133814775093E-15,-5.343781785202E-24));
#534=DIRECTION('center_axis',(-7.14706072102444E-15,1.,8.7526242896101E-31));
#535=DIRECTION('ref_axis',(-1.,-7.14706072102444E-15,-5.343781785202E-24));
#536=DIRECTION('',(-6.66133814775093E-15,1.,0.));
#537=DIRECTION('center_axis',(6.66133814775093E-15,-1.,0.));
#538=DIRECTION('ref_axis',(-1.,-6.66133814775093E-15,-5.34378178520201E-24));
#539=DIRECTION('center_axis',(-7.14706072102444E-15,1.,8.7526242896101E-31));
#540=DIRECTION('ref_axis',(-1.,-7.14706072102444E-15,-5.34378178520201E-24));
#541=DIRECTION('',(-6.66133814775093E-15,1.,0.));
#542=DIRECTION('center_axis',(6.66133814775093E-15,-1.,0.));
#543=DIRECTION('ref_axis',(-1.,-6.66133814775093E-15,-5.343781785202E-24));
#544=DIRECTION('center_axis',(-7.14706072102444E-15,1.,8.7526242896101E-31));
#545=DIRECTION('ref_axis',(-1.,-7.14706072102444E-15,-5.343781785202E-24));
#546=DIRECTION('',(-6.66133814775093E-15,1.,0.));
#547=DIRECTION('center_axis',(0.,-1.,0.));
#548=DIRECTION('ref_axis',(0.,0.,1.));
#549=DIRECTION('',(-1.,-7.14706072102444E-15,-5.343781785202E-24));
#550=DIRECTION('',(0.,0.,1.));
#551=DIRECTION('',(-1.,0.,0.));
#552=DIRECTION('center_axis',(0.,0.,-1.));
#553=DIRECTION('ref_axis',(0.,-1.,0.));
#554=DIRECTION('',(0.,-1.,0.));
#555=DIRECTION('',(-1.,0.,0.));
#556=DIRECTION('',(0.,1.,0.));
#557=DIRECTION('',(0.,1.,0.));
#558=DIRECTION('center_axis',(-1.,0.,0.));
#559=DIRECTION('ref_axis',(0.,0.,1.));
#560=DIRECTION('',(0.,1.,0.));
#561=DIRECTION('',(0.,0.,-1.));
#562=DIRECTION('center_axis',(-1.,0.,0.));
#563=DIRECTION('ref_axis',(0.,-1.,0.));
#564=DIRECTION('',(0.,0.,-1.));
#565=DIRECTION('',(0.,-1.,0.));
#566=DIRECTION('center_axis',(-5.343781785202E-24,-3.55967374590227E-38,
1.));
#567=DIRECTION('ref_axis',(-1.,-7.14706072102444E-15,-5.343781785202E-24));
#568=DIRECTION('',(1.,-3.89254814322436E-9,0.));
#569=DIRECTION('',(0.,1.,0.));
#570=DIRECTION('',(1.,-3.89254814322436E-9,0.));
#571=DIRECTION('',(-1.,0.,0.));
#572=DIRECTION('center_axis',(0.,1.,0.));
#573=DIRECTION('ref_axis',(-1.,0.,0.));
#574=DIRECTION('',(-1.,3.89254814322436E-9,-6.08210660973374E-9));
#575=DIRECTION('center_axis',(0.,1.,0.));
#576=DIRECTION('ref_axis',(-1.,0.,0.));
#577=DIRECTION('center_axis',(0.,-1.,0.));
#578=DIRECTION('ref_axis',(1.,0.,0.));
#579=DIRECTION('center_axis',(0.,-1.,0.));
#580=DIRECTION('ref_axis',(1.,0.,0.));
#581=DIRECTION('center_axis',(0.,-1.,0.));
#582=DIRECTION('ref_axis',(1.,0.,0.));
#583=DIRECTION('center_axis',(0.,-1.,0.));
#584=DIRECTION('ref_axis',(1.,0.,0.));
#585=DIRECTION('center_axis',(0.,-1.,0.));
#586=DIRECTION('ref_axis',(1.,0.,0.));
#587=DIRECTION('center_axis',(0.,1.,0.));
#588=DIRECTION('ref_axis',(1.,0.,0.));
#589=DIRECTION('center_axis',(0.,-1.,0.));
#590=DIRECTION('ref_axis',(1.,0.,0.));
#591=DIRECTION('',(0.,-1.,0.));
#592=DIRECTION('center_axis',(0.,1.,0.));
#593=DIRECTION('ref_axis',(1.,0.,0.));
#594=DIRECTION('center_axis',(0.,-1.,0.));
#595=DIRECTION('ref_axis',(1.,0.,0.));
#596=DIRECTION('',(0.,-1.,0.));
#597=DIRECTION('center_axis',(0.,1.,0.));
#598=DIRECTION('ref_axis',(1.,0.,0.));
#599=DIRECTION('center_axis',(0.,-1.,0.));
#600=DIRECTION('ref_axis',(1.,0.,0.));
#601=DIRECTION('',(0.,-1.,0.));
#602=DIRECTION('center_axis',(0.,1.,0.));
#603=DIRECTION('ref_axis',(1.,0.,0.));
#604=DIRECTION('center_axis',(0.,-1.,0.));
#605=DIRECTION('ref_axis',(1.,0.,0.));
#606=DIRECTION('',(0.,-1.,0.));
#607=DIRECTION('center_axis',(0.,1.,0.));
#608=DIRECTION('ref_axis',(1.,0.,0.));
#609=DIRECTION('center_axis',(0.,-1.,0.));
#610=DIRECTION('ref_axis',(1.,0.,0.));
#611=DIRECTION('',(0.,-1.,0.));
#612=DIRECTION('center_axis',(0.,1.,0.));
#613=DIRECTION('ref_axis',(1.,0.,1.22464679914735E-16));
#614=DIRECTION('',(0.,1.,0.));
#615=DIRECTION('center_axis',(0.,1.,0.));
#616=DIRECTION('ref_axis',(-1.,0.,0.));
#617=DIRECTION('center_axis',(6.08210660973374E-9,0.,-1.));
#618=DIRECTION('ref_axis',(-1.,3.89254814322436E-9,-6.08210660973374E-9));
#619=DIRECTION('',(-1.,3.89254814322436E-9,-6.08210660973374E-9));
#620=DIRECTION('center_axis',(0.,1.,0.));
#621=DIRECTION('ref_axis',(0.,0.,-1.));
#622=CARTESIAN_POINT('',(0.,0.,0.));
#623=CARTESIAN_POINT('Origin',(-32.75,-27.6499982833864,-3.87424622578709E-23));
#624=CARTESIAN_POINT('',(-44.,-27.6499982833864,10.0000001490116));
#625=CARTESIAN_POINT('',(-44.,-27.6499982833864,-10.0000001490116));
#626=CARTESIAN_POINT('',(-44.,-27.6499982833864,-1.93712392798164E-23));
#627=CARTESIAN_POINT('',(-25.5,-27.6500000000001,10.0000001490116));
#628=CARTESIAN_POINT('',(-25.5,-27.6500000000001,10.0000001490116));
#629=CARTESIAN_POINT('',(-25.5,-27.6500000000001,-10.0000001490116));
#630=CARTESIAN_POINT('Origin',(-25.5,-27.6500000000001,-1.17432708493192E-30));
#631=CARTESIAN_POINT('',(-25.5,-27.6500000000001,-10.0000001490116));
#632=CARTESIAN_POINT('',(-24.25,-27.6500000000001,6.9999981269));
#633=CARTESIAN_POINT('Origin',(-25.5,-27.6500000000001,6.9999981269));
#634=CARTESIAN_POINT('',(-24.25,-27.6500000000001,-6.9999981269));
#635=CARTESIAN_POINT('Origin',(-25.5,-27.6500000000001,-6.9999981269));
#636=CARTESIAN_POINT('',(-31.2499981269,-27.6500000000001,7.0417168680086E-16));
#637=CARTESIAN_POINT('Origin',(-32.4999981269,-27.6500000000001,8.57252530014552E-16));
#638=CARTESIAN_POINT('',(-22.174999999997,-27.65,4.07195078484935E-16));
#639=CARTESIAN_POINT('Origin',(-25.5,-27.6500000000001,-1.17432708493192E-30));
#640=CARTESIAN_POINT('',(-17.2500018731,-27.65,-1.01033337322825E-15));
#641=CARTESIAN_POINT('Origin',(-18.5000018731,-27.65,-8.57252530014554E-16));
#642=CARTESIAN_POINT('Origin',(-25.5,-27.6500000000001,-1.17432708493192E-30));
#643=CARTESIAN_POINT('',(-25.4999999999999,-29.6500000000001,10.0000001490116));
#644=CARTESIAN_POINT('',(-25.5,-27.6500000000001,10.0000001490116));
#645=CARTESIAN_POINT('',(-25.4999999999999,-29.6500000000001,-10.0000001490116));
#646=CARTESIAN_POINT('Origin',(-25.4999999999999,-29.6500000000001,-1.17432708493192E-30));
#647=CARTESIAN_POINT('',(-25.5,-27.6500000000001,-10.0000001490116));
#648=CARTESIAN_POINT('Origin',(-25.5,-27.6500000000001,6.9999981269));
#649=CARTESIAN_POINT('',(-24.2499999999999,-29.6500000000001,6.9999981269));
#650=CARTESIAN_POINT('Origin',(-25.4999999999999,-29.6500000000001,6.9999981269));
#651=CARTESIAN_POINT('',(-24.25,-27.6500000000001,6.9999981269));
#652=CARTESIAN_POINT('Origin',(-25.5,-27.6500000000001,-6.9999981269));
#653=CARTESIAN_POINT('',(-24.2499999999999,-29.6500000000001,-6.9999981269));
#654=CARTESIAN_POINT('Origin',(-25.4999999999999,-29.6500000000001,-6.9999981269));
#655=CARTESIAN_POINT('',(-24.25,-27.6500000000001,-6.9999981269));
#656=CARTESIAN_POINT('Origin',(-32.4999981269,-27.6500000000001,8.57252530014552E-16));
#657=CARTESIAN_POINT('',(-31.2499981268999,-29.6500000000001,1.11022302462516E-15));
#658=CARTESIAN_POINT('Origin',(-32.4999981268999,-29.6500000000001,8.57252530014552E-16));
#659=CARTESIAN_POINT('',(-31.2499981269,-27.6500000000001,1.0103333865877E-15));
#660=CARTESIAN_POINT('Origin',(-25.5,-27.6500000000001,-1.17432708493192E-30));
#661=CARTESIAN_POINT('',(-22.1749999999969,-29.6500000000001,4.07195078484935E-16));
#662=CARTESIAN_POINT('Origin',(-25.4999999999999,-29.6500000000001,-1.17432708493192E-30));
#663=CARTESIAN_POINT('',(-22.174999999997,-27.65,4.07195078484935E-16));
#664=CARTESIAN_POINT('Origin',(-18.5000018731,-27.65,-8.57252530014554E-16));
#665=CARTESIAN_POINT('',(-17.2500018730999,-29.65,-1.11022302462516E-15));
#666=CARTESIAN_POINT('Origin',(-18.5000018730999,-29.65,-8.57252530014554E-16));
#667=CARTESIAN_POINT('',(-17.2500018731,-27.65,-7.04171673441408E-16));
#668=CARTESIAN_POINT('Origin',(-44.,-29.6500000000002,-10.0000001490116));
#669=CARTESIAN_POINT('',(-46.,-29.6500000000002,10.0000001490116));
#670=CARTESIAN_POINT('',(-25.4999999999999,-29.6500000000001,10.0000001490116));
#671=CARTESIAN_POINT('',(-46.,-29.6500000000002,-10.0000001490116));
#672=CARTESIAN_POINT('',(-46.,-29.6500000000002,10.0000001490116));
#673=CARTESIAN_POINT('',(-44.,-29.6500000000002,-10.0000001490116));
#674=CARTESIAN_POINT('Origin',(-44.,11.6,-10.0000001490116));
#675=CARTESIAN_POINT('',(-46.,11.6,-10.0000001490116));
#676=CARTESIAN_POINT('',(-46.,-29.6500000000002,-10.0000001490116));
#677=CARTESIAN_POINT('',(-44.,11.6,-10.0000001490116));
#678=CARTESIAN_POINT('',(-44.,11.6,-10.0000001490116));
#679=CARTESIAN_POINT('',(-44.,9.60000009536743,-10.0000001490116));
#680=CARTESIAN_POINT('',(-44.,0.287499999999939,-10.000000112519));
#681=CARTESIAN_POINT('',(-44.,-29.6500000000002,-10.0000001490116));
#682=CARTESIAN_POINT('Origin',(-46.,-9.02500000000012,0.));
#683=CARTESIAN_POINT('',(-46.,11.6,10.0000001490116));
#684=CARTESIAN_POINT('',(-46.,11.6,10.0000001490116));
#685=CARTESIAN_POINT('',(-46.,11.6,-10.0000001490116));
#686=CARTESIAN_POINT('Origin',(-44.,-9.02500000000012,0.));
#687=CARTESIAN_POINT('',(-44.,9.60000009536743,10.0000001490116));
#688=CARTESIAN_POINT('',(-44.,9.60000009536743,0.));
#689=CARTESIAN_POINT('',(-44.,11.6,10.0000001490116));
#690=CARTESIAN_POINT('Origin',(-25.5,-27.6500000000001,10.0000001490116));
#691=CARTESIAN_POINT('',(-25.5,9.6,10.0000001490116));
#692=CARTESIAN_POINT('',(-50.,9.60000009536743,10.0000001490116));
#693=CARTESIAN_POINT('',(-25.5,11.6,10.0000001490116));
#694=CARTESIAN_POINT('',(-25.5,9.6,10.0000001490116));
#695=CARTESIAN_POINT('',(-44.,11.6,10.0000001490116));
#696=CARTESIAN_POINT('',(-50.,11.6000000953674,10.0000001490116));
#697=CARTESIAN_POINT('',(-44.,11.6,10.0000001490116));
#698=CARTESIAN_POINT('Origin',(-33.75,9.60000009536743,0.));
#699=CARTESIAN_POINT('',(-25.5,9.6,-10.));
#700=CARTESIAN_POINT('',(-25.5,9.6,-10.));
#701=CARTESIAN_POINT('Origin',(-25.5,9.6,0.));
#702=CARTESIAN_POINT('',(-19.7499981269,9.6,-1.53080849893419E-16));
#703=CARTESIAN_POINT('Origin',(-18.4999981269,9.6,0.));
#704=CARTESIAN_POINT('',(-27.1,9.6,1.95943487863577E-16));
#705=CARTESIAN_POINT('Origin',(-25.5,9.6,0.));
#706=CARTESIAN_POINT('',(-33.7500018731,9.6,-1.53080849893419E-16));
#707=CARTESIAN_POINT('Origin',(-32.5000018731,9.6,0.));
#708=CARTESIAN_POINT('',(-26.75,9.6,7.0000018731));
#709=CARTESIAN_POINT('Origin',(-25.5,9.6,7.0000018731));
#710=CARTESIAN_POINT('',(-26.75,9.6,-7.0000018731));
#711=CARTESIAN_POINT('Origin',(-25.5,9.6,-7.0000018731));
#712=CARTESIAN_POINT('Origin',(-18.4999981269,9.6,0.));
#713=CARTESIAN_POINT('',(-19.7499981269,11.6,0.));
#714=CARTESIAN_POINT('Origin',(-18.4999981269,11.6,0.));
#715=CARTESIAN_POINT('',(-19.7499981269,9.6,1.53080849893419E-16));
#716=CARTESIAN_POINT('Origin',(-25.5,9.6,0.));
#717=CARTESIAN_POINT('',(-27.1,11.6,1.95943487863577E-16));
#718=CARTESIAN_POINT('Origin',(-25.5,11.6,0.));
#719=CARTESIAN_POINT('',(-27.1,9.6,1.95943487863577E-16));
#720=CARTESIAN_POINT('Origin',(-32.5000018731,9.6,0.));
#721=CARTESIAN_POINT('',(-33.7500018731,11.6,0.));
#722=CARTESIAN_POINT('Origin',(-32.5000018731,11.6,0.));
#723=CARTESIAN_POINT('',(-33.7500018731,9.6,1.53080849893419E-16));
#724=CARTESIAN_POINT('Origin',(-25.5,9.6,7.0000018731));
#725=CARTESIAN_POINT('',(-26.75,11.6,7.0000018731));
#726=CARTESIAN_POINT('Origin',(-25.5,11.6,7.0000018731));
#727=CARTESIAN_POINT('',(-26.75,9.6,7.0000018731));
#728=CARTESIAN_POINT('Origin',(-25.5,9.6,-7.0000018731));
#729=CARTESIAN_POINT('',(-26.75,11.6,-7.0000018731));
#730=CARTESIAN_POINT('Origin',(-25.5,11.6,-7.0000018731));
#731=CARTESIAN_POINT('',(-26.75,9.6,-7.0000018731));
#732=CARTESIAN_POINT('Origin',(-25.5,9.6,0.));
#733=CARTESIAN_POINT('',(-25.5,11.6,-10.));
#734=CARTESIAN_POINT('',(-25.5,9.6,-10.));
#735=CARTESIAN_POINT('Origin',(-25.5,11.6,0.));
#736=CARTESIAN_POINT('Origin',(-25.5,9.6,-10.));
#737=CARTESIAN_POINT('',(-25.5,11.6,-10.));
#738=CARTESIAN_POINT('Origin',(-50.,11.6,10.0000001490116));
#739=UNCERTAINTY_MEASURE_WITH_UNIT(LENGTH_MEASURE(0.01),#743,
'DISTANCE_ACCURACY_VALUE',
'Maximum model space distance between geometric entities at asserted c
onnectivities');
#740=UNCERTAINTY_MEASURE_WITH_UNIT(LENGTH_MEASURE(0.01),#743,
'DISTANCE_ACCURACY_VALUE',
'Maximum model space distance between geometric entities at asserted c
onnectivities');
#741=(
GEOMETRIC_REPRESENTATION_CONTEXT(3)
GLOBAL_UNCERTAINTY_ASSIGNED_CONTEXT((#739))
GLOBAL_UNIT_ASSIGNED_CONTEXT((#743,#745,#746))
REPRESENTATION_CONTEXT('','3D')
);
#742=(
GEOMETRIC_REPRESENTATION_CONTEXT(3)
GLOBAL_UNCERTAINTY_ASSIGNED_CONTEXT((#740))
GLOBAL_UNIT_ASSIGNED_CONTEXT((#743,#745,#746))
REPRESENTATION_CONTEXT('','3D')
);
#743=(
LENGTH_UNIT()
NAMED_UNIT(*)
SI_UNIT(.MILLI.,.METRE.)
);
#744=(
LENGTH_UNIT()
NAMED_UNIT(*)
SI_UNIT($,.METRE.)
);
#745=(
NAMED_UNIT(*)
PLANE_ANGLE_UNIT()
SI_UNIT($,.RADIAN.)
);
#746=(
NAMED_UNIT(*)
SI_UNIT($,.STERADIAN.)
SOLID_ANGLE_UNIT()
);
#747=SHAPE_DEFINITION_REPRESENTATION(#748,#749);
#748=PRODUCT_DEFINITION_SHAPE('',$,#751);
#749=SHAPE_REPRESENTATION('',(#451),#741);
#750=PRODUCT_DEFINITION_CONTEXT('part definition',#755,'design');
#751=PRODUCT_DEFINITION('bracket','bracket v1',#752,#750);
#752=PRODUCT_DEFINITION_FORMATION('',$,#757);
#753=PRODUCT_RELATED_PRODUCT_CATEGORY('bracket v1','bracket v1',(#757));
#754=APPLICATION_PROTOCOL_DEFINITION('international standard',
'automotive_design',2009,#755);
#755=APPLICATION_CONTEXT(
'Core Data for Automotive Mechanical Design Process');
#756=PRODUCT_CONTEXT('part definition',#755,'mechanical');
#757=PRODUCT('bracket','bracket v1',$,(#756));
#758=PRESENTATION_STYLE_ASSIGNMENT((#759));
#759=SURFACE_STYLE_USAGE(.BOTH.,#760);
#760=SURFACE_SIDE_STYLE('',(#761));
#761=SURFACE_STYLE_FILL_AREA(#762);
#762=FILL_AREA_STYLE('Steel - Satin',(#763));
#763=FILL_AREA_STYLE_COLOUR('Steel - Satin',#764);
#764=COLOUR_RGB('Steel - Satin',0.627450980392157,0.627450980392157,0.627450980392157);
ENDSEC;
END-ISO-10303-21;
